<?xml version="1.0" encoding="UTF-8" standalone="no"?>
<!-- Created with Inkscape (http://www.inkscape.org/) -->

<svg
   xmlns:dc="http://purl.org/dc/elements/1.1/"
   xmlns:cc="http://creativecommons.org/ns#"
   xmlns:rdf="http://www.w3.org/1999/02/22-rdf-syntax-ns#"
   xmlns:svg="http://www.w3.org/2000/svg"
   xmlns="http://www.w3.org/2000/svg"
   xmlns:sodipodi="http://sodipodi.sourceforge.net/DTD/sodipodi-0.dtd"
   xmlns:inkscape="http://www.inkscape.org/namespaces/inkscape"
   id="svg2"
   version="1.1"
   inkscape:version="0.91 r13725"
   xml:space="preserve"
   width="138.74974"
   height="17.34375"
   viewBox="0 0 138.74974 17.34375"
   sodipodi:docname="ozon.svg"><metadata
     id="metadata8"><rdf:RDF><cc:Work
         rdf:about=""><dc:format>image/svg+xml</dc:format><dc:type
           rdf:resource="http://purl.org/dc/dcmitype/StillImage" /><dc:title></dc:title></cc:Work></rdf:RDF></metadata><defs
     id="defs6" /><sodipodi:namedview
     pagecolor="#ffffff"
     bordercolor="#666666"
     borderopacity="1"
     objecttolerance="10"
     gridtolerance="10"
     guidetolerance="10"
     inkscape:pageopacity="0"
     inkscape:pageshadow="2"
     inkscape:window-width="2560"
     inkscape:window-height="1403"
     id="namedview4"
     showgrid="false"
     inkscape:zoom="6.6496899"
     inkscape:cx="71.381246"
     inkscape:cy="22.202473"
     inkscape:window-x="0"
     inkscape:window-y="0"
     inkscape:window-maximized="1"
     inkscape:current-layer="g10"
     fit-margin-top="0"
     fit-margin-left="0"
     fit-margin-right="0"
     fit-margin-bottom="0" /><g
     id="g10"
     inkscape:groupmode="layer"
     inkscape:label="ink_ext_XXXXXX"
     transform="matrix(1.25,0,0,-1.25,0,17.34375)"><g
       id="g3485"
       transform="translate(-7.1796149,-13.755194)"><path
         inkscape:connector-curvature="0"
         id="path16"
         style="fill:#ffffff;fill-opacity:1;fill-rule:evenodd;stroke:none"
         d="m 59.949115,19.475894 c 0,-1.4512 -1.1625,-2.6387 -2.584,-2.6387 l -5.5621,0 c -1.4218,0 -2.5843,1.1875 -2.5843,2.6387 l -4e-4,2.434 c 0,1.5492 1.0011,2.6383 2.5847,2.6383 l 5.5621,0 c 1.5836,0 2.5844,-1.0891 2.5844,-2.6383 l -4e-4,-2.434 z m -1.8597,8.1543 -7.0071,0 c -2.8425,0 -5.1683,-2.3746 -5.1683,-5.277 l 0,-3.3214 c 0,-2.9016 2.3258,-5.2766 5.1683,-5.2766 l 7.0071,0 c 2.8425,0 5.1683,2.375 5.1683,5.2766 l 0,3.3214 c 0,2.9024 -2.3258,5.277 -5.1683,5.277" /><path
         inkscape:connector-curvature="0"
         id="path18"
         style="fill:#ffffff;fill-opacity:1;fill-rule:evenodd;stroke:none"
         d="m 21.214815,19.475894 c 0,-1.4512 -1.1625,-2.6387 -2.5844,-2.6387 l -5.5617,0 c -1.4219,0 -2.5844,1.1875 -2.5844,2.6387 l -4e-4,2.434 c 0,1.5492 1.002,2.6383 2.5848,2.6383 l 5.5617,0 c 1.5836,0 2.5847,-1.0891 2.5847,-2.6383 l -3e-4,-2.434 z m -1.8606,8.1543 -7.0062,0 c -2.8422001,0 -5.1684001,-2.3746 -5.1684001,-5.277 l 0,-3.3214 c 0,-2.9016 2.3262,-5.2766 5.1684001,-5.2766 l 7.0062,0 c 2.843,0 5.1692,2.375 5.1692,5.2766 l 0,3.3214 c 0,2.9024 -2.3262,5.277 -5.1692,5.277" /><path
         inkscape:connector-curvature="0"
         id="path20"
         style="fill:#ffffff;fill-opacity:1;fill-rule:evenodd;stroke:none"
         d="m 69.646815,13.755194 -4e-4,8.073 c 0,1.5715 1.0602,2.6758 2.7363,2.6758 l 5.4492,0 c 1.6762,0 2.736,-1.1043 2.736,-2.6758 l -4e-4,-8.073 3.5027,0 0,8.5234 c 0,2.9434 -2.4625,5.3516 -5.4718,5.3516 l -6.9786,0 c -3.0089,0 -5.4714,-2.4082 -5.4714,-5.3516 l 0,-8.5234 3.4984,0" /><path
         inkscape:connector-curvature="0"
         id="path22"
         style="fill:#ffffff;fill-opacity:1;fill-rule:evenodd;stroke:none"
         d="m 88.160511,16.645794 -0.665696,0 c -0.6109,0 -1.1121,-0.5019 -1.1121,-1.1164 l 0,-0.659 c 0,-0.6125 0.5012,-1.1152 1.1121,-1.1152 l 0.665696,0 c 0.612504,0 1.113104,0.5027 1.113104,1.1152 l 0,0.659 c 0,0.6145 -0.5006,1.1164 -1.113104,1.1164" /><path
         inkscape:connector-curvature="0"
         id="path24"
         style="fill:#ffffff;fill-opacity:1;fill-rule:evenodd;stroke:none"
         d="m 114.74361,27.630194 8e-4,-8.073 c 0,-1.5715 -1.041,-2.6758 -2.687,-2.6758 l -4.518,0 c -1.646,0 -2.687,1.1043 -2.687,2.6758 l 10e-4,8.073 -3.44,0 0,-8.5234 c 0,-2.9434 2.418,-5.3516 5.373,-5.3516 l 6.02,0 c 2.956,0 5.373,2.4082 5.373,5.3516 l 0,8.5234 -3.436,0" /><path
         inkscape:connector-curvature="0"
         id="path26"
         style="fill:#ffffff;fill-opacity:1;fill-rule:evenodd;stroke:none"
         d="m 97.854615,24.459094 1.26,0 0.565,3.1711 -2.592,0 c -3.026,0 -5.502,-2.443 -5.502,-5.4285 l 0,-8.4465 3.518,0 0,7.9898 c 0,1.5942 1.066,2.7141 2.751,2.7141" /><path
         inkscape:connector-curvature="0"
         id="path28"
         style="fill:#ffffff;fill-opacity:1;fill-rule:evenodd;stroke:none"
         d="m 42.981615,16.898994 -9.825,0 9.6972,7.3332 c 0.475,0.3605 0.7477,0.9125 0.7477,1.5148 0,1.0008 -0.7688,1.8207 -1.8926,1.8832 l -14.2211,0 0.0059,-0.032 -0.0059,8e-4 0.5465,-3.1125 9.8293,0 -9.7016,-7.327 c -0.475,-0.3605 -0.748,-0.9121 -0.748,-1.5148 0,-1.0418 0.7261,-1.8895 2.0039,-1.8895 l 14.1148,0 -0.0058,0.0332 7e-4,0 -0.546,3.1106" /></g></g></svg>